<svg xmlns="http://www.w3.org/2000/svg" viewBox="0 0 243.83 293.3">
  <defs>
    <style>
      .cls-1{fill:#2f2e43;}
    </style>
  </defs>
  <title>
    4
  </title>
  <g id="Слой_2" data-name="Слой 2">
    <g id="Слой_2-2" data-name="Слой 2">
      <path class="cls-1" d="M57.43 279.83c-3.22-1.78-6.7-3.66-9-6.64a14.23 14.23 0 0 1-2-3.63c-.23-.62-1.2-6.27-.92-3a71.57 71.57 0 0 1-.1-7.47c.2-10 .75-20.1 1.25-30.13 1.46-29.2 3.08-58.42 3.65-87.67.24-12.35.37-24.74-.33-37.1C49 85.67 46.5 67 48 48.45a157.7 157.7 0 0 1 2.8-19.87c1.25-5.93 3.37-10.82 5.7-16.28.1-.2 1-.93 1-1-2-5.9-2.26 2.1-1.42.9-.33.47-1.14 0-.2 0a13 13 0 0 0 1.64-.12c3-.2 6-.2 9-.23 6.64 0 13.3.05 19.93.47 8.88.56 17.67 1.92 26.58 2.3 11.6.52 23.2.3 34.8-.2 9.64-.44 19.4-1.8 29.05-1.62 8 .14 15.2 2.5 18.36 10.4 2.88 7.25 3.13 15.56 3 23.25-.2 10.33-1.4 20.7-2.2 31l-2.63 34c-.44 5.8-.85 11.6-1.34 17.4-.47 5.5-1.83 11-2 16.53-.22 5.66.6 11.37.53 17.06-.06 3.54 0 7.1-.07 10.64 0 11.15-.08 22.3-.25 33.44-.2 12.86-.52 25.73-1.24 38.58-.55 9.83-1 19.85-3.17 29.37a38.25 38.25 0 0 1-1.1 4c-.17.47.67-.43-.27.56a4.74 4.74 0 0 1-2.27 1.6c-2.68.9-6.1.2-8.88.26-2.42.05-4.84.2-7.26.26-12.47.3-24.94.15-37.4-.05-23.34-.37-46.68-1.1-70-2l-4.27-.1c-7.66-.3-7.65 11.6 0 11.9q29.34 1.2 58.7 1.86c14.4.33 28.8.6 43.2.5 5.32 0 10.62-.17 15.92-.36 7.44-.28 15.2.77 20.7-5.4s5.7-16.7 6.53-24.3c1.37-12.78 1.87-25.66 2.24-38.5.63-21.44.28-42.9.74-64.35.07-3.26-.17-6.44-.4-9.68-.4-5.82.8-11.27 1.43-17 1.3-12.2 2-24.48 2.9-36.7l2.87-37c.68-8.85 1.3-17.64.3-26.5-.93-8.2-2.82-16.86-8.44-23.2C195 3.32 185.83 1.1 176.88.93c-10.3-.2-20.7 1.27-31 1.7-12.23.5-24.48.65-36.7-.07C93.1 1.64 77.48-.38 61.3.07 56.4.2 51.67 0 48.1 3.86c-4.3 4.68-6.3 11.46-7.82 17.47-8.23 32.6-2 65.48-1.67 98.5.3 30.92-1.43 61.86-3 92.72-.64 12.63-1.34 25.26-1.82 37.9-.28 7.28-1.23 15.24 1.2 22.27C37.8 280.95 44 286 51.4 290.1c6.7 3.73 12.72-6.55 6-10.27z"/>
      <path class="cls-1" d="M35 229.5c-9.1.4-20-.58-28.92 2C2 232.62.34 235.63.43 239.7s-.06 8.38.08 12.56c.28 8.2 2.24 14.85 11.1 16.36a73.1 73.1 0 0 0 11.82.8h7.96c.25 0 2.3.16 1 0 3.2.44 6.35-.77 7.32-4.16.8-2.77-1-6.9-4.16-7.32-7.16-1-14.56.4-21.66-1a10.62 10.62 0 0 0-2-.5c1.2 0 .53 1.77 1.07.58s-.57-5.13-.56-6.6c0-4-.54-8.65 0-12.6l-1.75 4.2c-1.6 1.9-1.7.58-.2.63a18.38 18.38 0 0 0 2.13-.23c2-.18 4-.26 5.94-.35 5.5-.25 11-.47 16.47-.7 7.62-.33 7.66-12.24 0-11.9zM37.2 207.94c-5.74-.84-11.55-1.23-17.33-1.76l-4.87-.46-1.6-.17c-.64-.07-1.28-.45-.46 0-.7-.36-.26.53-.7-.8a15.8 15.8 0 0 1-.38-5.65c.08-1.84.22-3.7.43-5.52a15 15 0 0 0 .27-2.05q.85-2.1-.46-.5a2.12 2.12 0 0 1-1 .85 58.77 58.77 0 0 1 6.58-1.24c6.57-.9 14.14-1.78 20.68-.38 7.47 1.6 10.67-9.87 3.17-11.48-9.25-2-19.32-.88-28.57.62-3 .5-6.72.95-9 3.15C.4 185.83.46 192 .13 196.43-.6 206 1.43 216 12.4 217.35c3.74.45 7.5.75 11.27 1.1L30 219l3 .3c.34 0 2.68.34 1 .1 7.5 1.1 10.73-10.38 3.17-11.48zM40 156.66a119.75 119.75 0 0 1-21.54-.66c-1.55-.22-3.1-.67-4.63-.86a15.27 15.27 0 0 0-1.68-.47q2.15 3.18 1.73 1.7a1.9 1.9 0 0 1-.07-.73c.7-2.4.08-6.18 0-8.72a40.32 40.32 0 0 1 .1-4.73c0-.17.4-2.4.42-2.4a9.33 9.33 0 0 1-1.8 1.3c0-.13 6.8-.56 7.18-.57 6.18-.13 12.4 0 18.56.45 7.65.54 7.6-11.37 0-11.9-8.1-.58-16.5-1-24.6-.14-3.55.37-6.74.9-9 3.94-2.88 3.88-2.8 9.42-2.76 14 .08 8.37-1.3 17.18 8.72 19.7 9.54 2.4 19.58 2.3 29.32 1.94 7.64-.28 7.68-12.2 0-11.9zM42.63 104.92a151.73 151.73 0 0 1-17-.27c-2.92-.22-5.86-.5-8.75-.94-3.13-.47-3-1-3-4.15 0-2.2-.16-5.34.74-7.4.76-1.73 1.63-1.5 4-1.93a52.7 52.7 0 0 1 17.1-.22c7.5 1.1 10.74-10.36 3.18-11.48-8.83-1.3-18.54-1.66-27.17 1.1-8.05 2.56-9.26 10.54-9.67 18-.46 8.45 1.6 15.63 10.7 17.44 9.72 1.93 20 2.14 29.88 1.78 7.64-.28 7.68-12.2 0-11.9zM40.32 56.1a135.92 135.92 0 0 0-19.64.35c-1.2.1-3.6-.12-4.65.52q-2-.27-.1.72 1.62 1.4.44.04c-.92-2.9-3.1-4.64-3.12-8 0-1.73 0-6.72 1-8.12s3.38-2.22 4.9-2.54c6.57-1.37 14.2-.8 20.86-.5 7.67.3 7.66-11.6 0-11.92a151.36 151.36 0 0 0-15.16.07c-4.24.25-9.1.22-13 2.18-2.9 1.48-6.4 3.7-8 6.64-2.07 3.88-2.1 9.24-2.4 13.46C1 55.38 4.8 66.6 11.73 68.44c4.1 1.08 8.55-.12 12.68-.38a137.57 137.57 0 0 1 15.9-.06c7.66.4 7.64-11.52 0-11.9zM208 39.4c5 .48 10 .7 15.06 1.13 1.5.13 3 .27 4.45.46 1.18.14 3.44 1 4.44.7q2.14.76-.26-1.7.07 1.36.07 2.72 0 2.74-.18 5.47a20.46 20.46 0 0 1-.55 4.74c-.75 2.25.44.66-1.18 1.35s-4.9.1-6.76.12c-5 .08-10.05.14-15.08.26-7.65.2-7.68 12.1 0 11.9 7-.16 14-.16 21-.36 3.92-.1 7.72-.6 10.54-3.57 3.13-3.3 3.4-8.36 3.82-12.64.45-4.46 1.16-10.2-.7-14.4-2-4.46-6.53-5.32-10.93-6-7.86-1.16-15.8-1.38-23.7-2.13-7.6-.72-7.57 11.2 0 11.9zM202.64 89.17l19.2.23c2 0 6.38-.77 7.9.47C231.04 91 231 94.8 231 96.3a21.45 21.45 0 0 1-.58 6.67 12 12 0 0 1-1.45 3.25q-1 1.17.53.18h-2c-6.4-.7-13.45.2-19.9.3-7.65.13-7.68 12 0 11.92l15.92-.25c4.23-.07 8.88.57 12.4-2.23 5.9-4.7 7.34-13.58 7-20.64-.4-7.2-2.38-15.4-10.35-17.48-4.56-1.18-9.9-.55-14.56-.6l-15.35-.2c-7.66-.08-7.67 11.82 0 11.92zM201.67 140.74a132.37 132.37 0 0 1 17.13-.07c5.38.35 11.57.55 16.62 2.54l-3.56-2.73c-.78-1.43-.17-.24-.2 1s0 2.62 0 3.92a63.42 63.42 0 0 0 0 7.84s.46 3.4 1.05 2.13c-.13.3-2.06.53-2.4.6-1.72.38-3.5.66-5.23.95-8.42 1.4-17.5 1.87-25.94.34-7.5-1.36-10.7 10.12-3.17 11.48a91.07 91.07 0 0 0 28.5.22c7.8-1.05 18-1.64 19-11.4.55-5.56.2-11.47 0-17.06-.17-5.1-2.07-8.15-7.15-9.44-11.1-2.8-23.4-3-34.74-2.23-7.6.5-7.66 12.4 0 11.9zM196.55 192.83l25.85.12h8.39q4.7.57-2.12-3.57c-.55.46 0 4.62 0 5.64v7.52c0 1.7-.65 5 0 6.58q-.32 3 2.36-1.56h-2.5q-5 0-10.1-.12c-7.3-.12-14.6-.3-21.9-.7-7.65-.43-7.62 11.48 0 11.9 9.3.5 18.58.7 27.87.8 4 0 9.13.85 12.62-1.64 4.56-3.25 3.58-9.4 3.57-14.3 0-5.2 1.1-11.74-.32-16.76s-5.87-5.67-10.3-5.7l-33.42-.15c-7.66 0-7.67 11.86 0 11.9zM197.63 240.7c5.66.75 11.3.2 17 .48 3.2.16 8.06-.14 11 1.3.5.25.27.17 0-.24s0 1.33 0 1.64c0 2.3.12 4.57.13 6.87V259l2.95-5.13c-5 3.63-10.6 2.94-16.48 2.54-6.34-.43-12.65-1.1-19-1.57-7.64-.56-7.6 11.34 0 11.9 9.5.7 19.35 2.54 28.9 1.85 4.68-.34 9.6-1.7 13.2-4.9 3-2.63 2.38-6.46 2.4-10.1 0-8.77 1.26-19.18-8.92-22.58-9.88-3.3-21-.86-31.18-2.22-3.2-.43-5.92 3-6 6 0 3.57 2.78 5.53 6 6zM96.22 244.53c-4.2-.48-8.6.47-12.76-.22-4.76-.77-5.44-6.57-6.3-10.76-1.9-9.28-1-19-.2-28.38 1.65-20.63 2.34-41.3 2.66-62 .16-10.27.38-20.55.3-30.83S78.7 92.13 78.13 82a96.46 96.46 0 0 1 .3-14.92c.24-2.52.6-5 1-7.53.23-1.6.14-4.95 1.1-6.34 1.47-2.15 6.7-2.34 9.2-3a26.44 26.44 0 0 1 8.66-.54c7.65.54 7.6-11.36 0-11.9-6.4-.42-12.4.94-18.54 2.58-8 2.13-10.63 7.47-11.8 15.13-1.4 9.16-2.35 18.2-1.77 27.47s1.54 18.3 1.67 27.5c.27 19.35-.2 38.76-.85 58.1-.3 9.4-.76 18.83-1.43 28.23-.66 9-1.73 18-1.46 27.06.26 8.73 1.45 19.54 6.78 26.8 5.82 7.95 16.82 4.86 25.2 5.8 7.6.87 7.53-11.04 0-11.9zM145.9 52.8a78.64 78.64 0 0 1 10 1.35c1.65.34 4.8.37 6.16 1.3 1.82 1.24 1.7 3.13 2 5.25 1.4 9.58 2.05 19.35 2.5 29a368.75 368.75 0 0 1-2.13 60.12c-1.14 9.68-3 19.28-3.8 29a178 178 0 0 0 .47 31c.85 9.7 2.27 19.35 2.9 29.06.1 1.4.64 3.67-.4 4.86s-4.37 1.24-5.62 1.42a69.34 69.34 0 0 1-15.1.37c-7.66-.55-7.62 11.36 0 11.9 7.9.58 17.38.68 24.82-2.5 7.68-3.28 8.7-10.5 8-18-1.6-18.37-4.63-36.73-3.43-55.22 1.22-18.77 5.1-37.25 6.06-56.1A368.82 368.82 0 0 0 177 70.35c-.8-8.06-.2-20.27-8.28-24.92-6.23-3.58-15.82-4-22.87-4.52-7.64-.56-7.6 11.35 0 11.92z"/>
      <path class="cls-1" d="M142.5 207.7c-8.58.7-17.18 1.17-25.8 1.4q-6.46.17-12.92.17-3.48 0-7-.05h-2q-4.43-.8.47 2.45c.17-.15.12-4.65.18-5a15.05 15.05 0 0 1 1.57-4.83c1.4-2.6 4.17-5.3 7.4-4.72s3.23 3.14 3.46 5.72c.33 3.64.7 6.8 2.6 10 2.7 4.53 9.35 3.4 10.9-1.42 3.2-10 18.77-12.84 27.4-16 7.13-2.6 4.05-14.12-3.18-11.48-13.52 4.94-30.8 8.88-35.7 24.3l10.87-1.42c-2.45-4.14-.72-9.7-3.35-14.1a16.16 16.16 0 0 0-11.94-7.44c-11-1.28-19.52 8.12-21.46 18.18-.84 4.32-1.54 10.2 1.17 14 3.42 4.77 10.5 3.7 15.63 3.72 13.92.1 27.83-.46 41.7-1.55 7.6-.6 7.66-12.5 0-11.9zM145.2 165.74a136.2 136.2 0 0 1-27.2-4.85c-7.52-2-17.27-3.62-23.8-8l-3 11.08a277.07 277.07 0 0 0 55.66-11.2c7.3-2.27 4.18-13.76-3.17-11.47A261.68 261.68 0 0 1 91.2 152c-5.9.58-8.1 7.64-3 11.1 7.47 5.06 18 6.9 26.63 9.23a152.24 152.24 0 0 0 30.38 5.27c7.66.47 7.63-11.44 0-11.9z"/>
      <path class="cls-1" d="M125.32 154.16a118.46 118.46 0 0 0-.3 16.63c.38 7.6 12.3 7.66 11.9 0a118.46 118.46 0 0 1 .3-16.64c.3-3.2-2.93-6-6-6-3.45 0-5.66 2.74-6 6zM143.68 121.33c-16.17 1.85-33.83 4-49-3.35l-1.42 10.88L142 115c5.47-1.56 5.86-10.12 0-11.48l-25.67-5.94-12.33-2.9c-3.78-.87-7.66-1.4-10.83-3.75l-1.42 10.88c3.77-1.4 8-.72 12-.7q7.27.07 14.54-.16c9.36-.3 18.7-1 28-2 7.53-.8 7.6-12.72 0-11.9-10 1.05-20 1.76-30 2q-7.28.18-14.55.1c-4.47-.07-8.94-.46-13.2 1.13-5.06 1.9-5.62 7.75-1.42 10.88 6.52 4.85 16.44 5.6 24.13 7.37l27.6 6.48v-11.52l-48.77 13.9c-4.64 1.32-6.2 8.57-1.43 10.88 17.37 8.44 36.36 7.1 55 5 7.53-.86 7.6-12.78 0-11.9z"/>
    </g>
  </g>
</svg>